Coordinates
version=1
nRows=24
nColumns=26
inDegrees=yes

Units are S.I. units (second, meters, Newtons, ...)
Angles are in degrees.

endheader
time	pelvis_tilt	pelvis_list	pelvis_rotation	pelvis_tx	pelvis_ty	pelvis_tz	hip_flexion_r	hip_adduction_r	hip_rotation_r	knee_angle_r	knee_angle_r_beta	ankle_angle_r	subtalar_angle_r	mtp_angle_r	hip_flexion_l	hip_adduction_l	hip_rotation_l	knee_angle_l	knee_angle_l_beta	ankle_angle_l	subtalar_angle_l	mtp_angle_l	lumbar_extension	lumbar_bending	lumbar_rotation
      0.80833333	      8.09252357	     -2.21423369	      5.36254421	      0.84029849	      1.01281310	      0.18783121	     -2.69101474	      4.69461619	     -8.21237195	      9.26826706	      9.26826706	      2.34657240	      0.00000000	      0.00000000	     12.26006336	    -12.25900567	     -8.79322778	     64.86183677	     64.86183677	      4.09005833	      0.00000000	      0.00000000	    -19.37517489	      5.46023528	      4.37326047
      0.81666667	      8.21909630	     -2.07518971	      5.20865952	      0.84844892	      1.01384406	      0.18839614	     -3.68666823	      4.68624347	     -7.89043960	      8.66496087	      8.66496087	      2.44120338	      0.00000000	      0.00000000	     12.81623837	    -12.10639831	     -9.25718316	     63.91568359	     63.91568359	      4.40101587	      0.00000000	      0.00000000	    -19.54570754	      5.25604618	      4.41687353
      0.82500000	      8.16137011	     -2.03082153	      4.93810537	      0.85623922	      1.01441156	      0.18918955	     -4.38223599	      4.74028836	     -7.70047618	      8.15782528	      8.15782528	      2.49679578	      0.00000000	      0.00000000	     13.59176682	    -12.04247172	     -9.73637117	     62.90517799	     62.90517799	      4.68966436	      0.00000000	      0.00000000	    -19.55528046	      5.09874167	      4.59658506
      0.83333333	      8.18150621	     -1.82941156	      4.62306048	      0.86410885	      1.01522970	      0.18991493	     -5.21692065	      4.62420928	     -7.30012424	      7.60721813	      7.60721813	      2.55859345	      0.00000000	      0.00000000	     14.13613551	    -11.78587270	    -10.27961547	     61.54933000	     61.54933000	      4.74129345	      0.00000000	      0.00000000	    -19.67394081	      4.76812510	      4.74921117
      0.84166667	      8.17943706	     -1.72161613	      4.42088482	      0.87186650	      1.01563714	      0.19024215	     -5.97103350	      4.57878915	     -7.04538708	      7.15282725	      7.15282725	      2.77167950	      0.00000000	      0.00000000	     14.77854608	    -11.59446016	    -10.73070587	     60.18508253	     60.18508253	      4.90196347	      0.00000000	      0.00000000	    -19.76066418	      4.60839032	      4.81153436
      0.85000000	      8.16167500	     -1.60347534	      4.23711637	      0.87953613	      1.01594482	      0.19051578	     -6.68571590	      4.50928102	     -6.79830885	      6.73154451	      6.73154451	      2.89692834	      0.00000000	      0.00000000	     15.39948491	    -11.35068147	    -11.09995214	     58.68208982	     58.68208982	      4.96583390	      0.00000000	      0.00000000	    -19.84478655	      4.43993183	      4.85245312
      0.85833333	      8.16284720	     -1.47852494	      4.01353480	      0.88726442	      1.01619209	      0.19089588	     -7.41997950	      4.43150476	     -6.49888922	      6.31061728	      6.31061728	      3.00673150	      0.00000000	      0.00000000	     15.91415004	    -11.08386550	    -11.48813565	     56.96813690	     56.96813690	      4.93081239	      0.00000000	      0.00000000	    -19.95895498	      4.24192702	      4.92836560
      0.86666667	      8.09756771	     -1.42246023	      3.84335314	      0.89493614	      1.01614540	      0.19112994	     -8.04511086	      4.41478154	     -6.23891442	      5.95404879	      5.95404879	      3.17360056	      0.00000000	      0.00000000	     16.49271362	    -10.88071248	    -11.79896699	     55.16460735	     55.16460735	      4.84731304	      0.00000000	      0.00000000	    -19.99889985	      4.13777342	      4.95529628
      0.87500000	      8.03677587	     -1.40704597	      3.67788906	      0.90246012	      1.01594376	      0.19139817	     -8.64540731	      4.44820122	     -5.94036124	      5.62877573	      5.62877573	      3.39938216	      0.00000000	      0.00000000	     17.05151438	    -10.69227000	    -12.07824448	     53.23407497	     53.23407497	      4.75922795	      0.00000000	      0.00000000	    -20.07241893	      4.06661013	      4.98830221
      0.88333333	      7.92689990	     -1.44513799	      3.54312045	      0.91000046	      1.01552466	      0.19161398	     -9.16737457	      4.54481559	     -5.59925855	      5.36066931	      5.36066931	      3.58250284	      0.00000000	      0.00000000	     17.63066388	    -10.52852650	    -12.27228537	     51.18636071	     51.18636071	      4.54252689	      0.00000000	      0.00000000	    -20.08846257	      4.06435505	      5.02801546
      0.89166667	      7.82025558	     -1.54264492	      3.38072972	      0.91752852	      1.01500505	      0.19179799	     -9.67001734	      4.68959863	     -5.22475313	      5.12266980	      5.12266980	      3.70731184	      0.00000000	      0.00000000	     18.14432713	    -10.43241594	    -12.45541486	     49.01943582	     49.01943582	      4.28006663	      0.00000000	      0.00000000	    -20.11900492	      4.12541764	      5.10582460
      0.90000000	      7.71375692	     -1.59676226	      3.28558141	      0.92519172	      1.01441209	      0.19173354	    -10.17798528	      4.76821485	     -5.04987425	      4.88817158	      4.88817158	      4.06330444	      0.00000000	      0.00000000	     18.57146609	    -10.22747122	    -12.60368711	     46.63940343	     46.63940343	      3.85626388	      0.00000000	      0.00000000	    -20.14076478	      4.16824238	      5.12590327
      0.90833333	      7.68164119	     -1.68342429	      3.05146129	      0.93262460	      1.01385117	      0.19182005	    -10.66574783	      4.82674039	     -4.86454486	      4.78056148	      4.78056148	      4.61095736	      0.00000000	      0.00000000	     18.81284806	    -10.09135983	    -12.89915467	     44.08097583	     44.08097583	      3.40882106	      0.00000000	      0.00000000	    -20.28384457	      4.18129422	      5.35920164
      0.91666667	      7.56187950	     -1.77037236	      2.85291624	      0.94025226	      1.01312342	      0.19181616	    -11.06508085	      4.90161158	     -4.63365788	      4.69364172	      4.69364172	      4.73546127	      0.00000000	      0.00000000	     19.08283572	     -9.91142977	    -13.11207099	     41.38455719	     41.38455719	      2.93018624	      0.00000000	      0.00000000	    -20.30927553	      4.21222614	      5.51168743
      0.92500000	      7.40341130	     -1.85839553	      2.61676018	      0.94793488	      1.01229822	      0.19174790	    -11.39355439	      4.94939007	     -4.38344653	      4.71530840	      4.71530840	      5.21017004	      0.00000000	      0.00000000	     19.26478594	     -9.71997194	    -13.37628794	     38.48688090	     38.48688090	      2.33391895	      0.00000000	      0.00000000	    -20.30921873	      4.26215222	      5.64771612
      0.93333333	      7.24799223	     -1.97869138	      2.36759708	      0.95564623	      1.01132521	      0.19162899	    -11.74909559	      5.02866390	     -3.97916930	      4.73064455	      4.73064455	      5.69453319	      0.00000000	      0.00000000	     19.38949961	     -9.54945256	    -13.62635123	     35.48474684	     35.48474684	      1.72851397	      0.00000000	      0.00000000	    -20.30633632	      4.34209497	      5.80779826
      0.94166667	      7.07758976	     -2.12272994	      2.07665179	      0.96341363	      1.01029758	      0.19159671	    -12.02306755	      5.11382235	     -3.68422845	      4.82441024	      4.82441024	      6.07792403	      0.00000000	      0.00000000	     19.37844160	     -9.37429494	    -13.93019834	     32.23319425	     32.23319425	      1.03002304	      0.00000000	      0.00000000	    -20.28597116	      4.42730160	      5.98660088
      0.95000000	      6.92343592	     -2.20396465	      1.80716600	      0.97120457	      1.00923518	      0.19142594	    -12.33270631	      5.12169682	     -3.40538538	      4.89746572	      4.89746572	      6.45518764	      0.00000000	      0.00000000	     19.29084171	     -9.11471526	    -14.20819248	     28.87898801	     28.87898801	      0.15460141	      0.00000000	      0.00000000	    -20.27682202	      4.46489180	      6.07574459
      0.95833333	      6.74982598	     -2.35750023	      1.51759685	      0.97905193	      1.00801193	      0.19125491	    -12.61179420	      5.20128923	     -3.07742656	      5.00320822	      5.00320822	      6.87247393	      0.00000000	      0.00000000	     19.15884431	     -8.92824258	    -14.48511937	     25.44314145	     25.44314145	     -0.73050081	      0.00000000	      0.00000000	    -20.25559820	      4.55856254	      6.28538659
      0.96666667	      6.56790429	     -2.54862361	      1.22925589	      0.98691744	      1.00678801	      0.19112439	    -12.86952755	      5.31643968	     -2.71477923	      5.14595976	      5.14595976	      7.30520947	      0.00000000	      0.00000000	     19.00229299	     -8.77347220	    -14.71255785	     21.97932967	     21.97932967	     -1.77052340	      0.00000000	      0.00000000	    -20.23002131	      4.68039088	      6.50536475
      0.97500000	      6.36994001	     -2.69629665	      0.97269551	      0.99483494	      1.00546024	      0.19088319	    -13.12481769	      5.38222655	     -2.39602110	      5.26677841	      5.26677841	      7.72733431	      0.00000000	      0.00000000	     18.81992600	     -8.56611220	    -14.87005703	     18.50539737	     18.50539737	     -2.94022405	      0.00000000	      0.00000000	    -20.18151001	      4.75411023	      6.66148701
      0.98333333	      6.12492839	     -2.88733636	      0.75979535	      1.00280820	      1.00391300	      0.19042138	    -13.34191947	      5.48722807	     -2.09317760	      5.36869337	      5.36869337	      8.14337838	      0.00000000	      0.00000000	     18.72947420	     -8.36673609	    -14.88746091	     15.18199148	     15.18199148	     -4.14894630	      0.00000000	      0.00000000	    -20.06866625	      4.90566848	      6.79521970
      0.99166667	      5.86394134	     -3.14940040	      0.54268628	      1.01079960	      1.00225576	      0.19004467	    -13.54272668	      5.67245907	     -1.77396045	      5.47430423	      5.47430423	      8.55317770	      0.00000000	      0.00000000	     18.70559908	     -8.27258490	    -14.82105801	     12.11139784	     12.11139784	     -5.24810545	      0.00000000	      0.00000000	    -19.94342052	      5.11762637	      6.93943029
      1.00000000	      5.52762614	     -3.41335184	      0.42713100	      1.01877891	      1.00036635	      0.18934177	    -13.60644233	      5.86635579	     -1.64073160	      5.70462723	      5.70462723	      9.03710844	      0.00000000	      0.00000000	     18.86936376	     -8.14643901	    -14.51436433	      9.39274460	      9.39274460	     -6.22409949	      0.00000000	      0.00000000	    -19.72668060	      5.37576702	      6.97125467
